<svg width="128" height="128" viewBox="0 0 128 128" fill="none" xmlns="http://www.w3.org/2000/svg">
<path fill-rule="evenodd" clip-rule="evenodd" d="M60.32 0.0794296C50.9193 0.739037 42.9715 2.91697 34.7866 7.07612C20.0538 14.5626 8.8196 27.6001 3.35853 43.549C-1.61072 58.0607 -1.04179 74.6822 4.90681 88.7863C8.3396 96.9251 12.5941 103.234 18.838 109.445C24.1762 114.755 29.1835 118.307 36.0718 121.672C50.8416 128.885 68.0688 129.983 83.6257 124.702C86.535 123.715 88.2179 123.019 91.0609 121.63C96.2327 119.104 100.26 116.452 104.598 112.718L106.464 111.113L107.159 111.466C107.554 111.666 107.955 111.763 108.086 111.689C108.341 111.547 109.502 109.972 109.502 109.769C109.502 109.699 109.733 109.41 110.016 109.128C110.299 108.846 110.53 108.496 110.53 108.351C110.53 108.206 110.668 108.014 110.837 107.924C111.005 107.833 111.256 107.542 111.394 107.276C111.531 107.01 111.856 106.575 112.115 106.309C112.374 106.043 112.586 105.711 112.586 105.571C112.586 105.431 112.818 105.122 113.101 104.885C113.383 104.647 113.615 104.306 113.615 104.126C113.615 103.946 113.714 103.799 113.835 103.799C113.956 103.799 114.196 103.561 114.368 103.27C114.54 102.979 114.886 102.67 115.137 102.583C115.387 102.496 115.7 102.252 115.831 102.042C116.263 101.352 118.413 97.6055 118.413 97.5428C118.413 97.5091 118.823 96.8054 119.323 95.9788C121.191 92.8967 122.217 90.9632 122.119 90.7092C122.065 90.5663 121.753 90.2925 121.428 90.1005L120.835 89.7518L122.341 87.1532C123.169 85.724 123.954 84.3514 124.086 84.1028C124.217 83.8545 124.642 83.1232 125.03 82.4778C126.696 79.7047 126.873 79.3062 126.673 78.7765C126.498 78.3149 126.521 78.2711 127.048 78.0513C127.983 77.6614 128.066 77.4508 127.968 75.736C127.83 73.3102 127.262 73.0182 124.925 74.1706L123.639 74.8042L123.588 75.6906C123.54 76.5234 123.505 76.5837 123.015 76.6912C122.639 76.7738 122.428 76.9637 122.255 77.3754C122.124 77.689 121.946 77.9892 121.859 78.0427C121.708 78.1359 121.146 79.0826 120.135 80.9463C119.106 82.844 116.802 86.7924 116.587 87.0276C116.409 87.2223 116.314 87.2317 116.152 87.0704C116.038 86.9568 115.775 86.8639 115.568 86.8639C115.213 86.8639 114.013 88.7714 111.259 93.7099C111.074 94.0411 110.409 95.1658 109.782 96.2091C108.771 97.8884 108.644 98.198 108.671 98.906C108.687 99.346 108.611 99.7955 108.502 99.9048C108.392 100.014 108.302 100.241 108.302 100.408C108.302 100.575 108.148 100.964 107.96 101.272C107.772 101.58 107.618 101.957 107.618 102.11C107.617 102.263 107.5 102.485 107.358 102.603C107.216 102.72 107.052 103.115 106.994 103.479C106.935 103.843 106.833 104.141 106.766 104.141C106.593 104.141 106.246 104.947 106.246 105.346C106.246 105.53 106.178 105.681 106.095 105.681C105.92 105.681 105.455 106.719 105.529 106.948C105.556 107.033 105.508 107.149 105.421 107.204C105.203 107.344 104.361 109.034 104.361 109.331C104.361 109.735 100.646 112.467 97.423 114.433L95.5356 115.585L95.4257 112.557C95.2681 108.207 94.6118 105.273 93.0642 101.998C91.4454 98.5721 88.6808 95.1942 85.6821 92.9779C84.9752 92.4555 81.3524 90.2027 77.6312 87.9715C68.3857 82.4282 67.3563 81.7126 66.1331 79.9788C65.7514 79.4377 65.3436 78.9952 65.2267 78.9952C64.8968 78.9952 62.2765 77.6917 61.3809 77.082C58.2417 74.9448 56.0672 71.8348 55.1789 68.2109C53.8996 62.9932 55.1785 58.1337 58.5054 55.5718C59.0026 55.1889 59.4508 54.8757 59.5019 54.8757C59.553 54.8757 59.4041 55.3467 59.1712 55.9224C58.9383 56.4981 58.5491 57.7105 58.3063 58.6166C57.9212 60.054 57.8631 60.624 57.8501 63.0866C57.8371 65.5369 57.8863 66.0848 58.222 67.2408C59.1964 70.5965 61.1611 73.3049 64.1548 75.419C65.2901 76.2206 65.6323 76.3193 65.6323 75.8446C65.6323 75.4055 67.0309 74.0462 67.9091 73.6318C69.9268 72.6796 72.9342 72.4388 76.7195 72.9265C80.8677 73.4609 83.1173 73.9096 93.8219 76.3379C95.7069 76.7656 97.7575 77.1633 98.3789 77.222L99.5085 77.3287L98.8704 78.5598C98.1163 80.0145 97.9044 81.2207 98.1924 82.4191C98.305 82.888 98.4568 83.2717 98.5297 83.2717C98.6025 83.2717 98.7089 82.9792 98.7662 82.6216C98.9202 81.6596 99.8374 79.9456 100.516 79.3503C100.844 79.0634 101.706 78.539 102.433 78.1849C103.33 77.7476 104.099 77.1996 104.828 76.4763C105.894 75.4183 105.903 75.414 106.15 75.7921C106.69 76.6162 106.958 77.548 106.964 78.6284C106.97 79.7468 106.971 79.7487 107.236 79.2444C107.597 78.5583 107.708 76.5009 107.445 75.3779C107.169 74.1975 106.242 72.3358 105.298 71.0664L104.554 70.0655L104.447 70.7242C104.388 71.0866 104.286 71.6449 104.22 71.9649L104.099 72.5467L103.439 71.48C102.794 70.4365 100.855 68.2184 100.588 68.2184C100.514 68.2184 100.359 68.6226 100.243 69.1165C100.126 69.6103 99.9959 70.0768 99.9522 70.1527C99.9085 70.2289 99.1504 69.5361 98.2675 68.6132C96.4957 66.7613 96.5057 66.7627 96.1319 68.3181C96.0094 68.8277 95.8591 69.2448 95.7979 69.2448C95.7368 69.2448 95.3142 68.814 94.8589 68.2877C94.4035 67.7613 93.6016 66.994 93.0763 66.5826C92.0173 65.7527 91.86 65.7981 91.8512 66.9354C91.8427 68.0465 91.6814 68.1623 90.7101 67.7547C88.9092 66.9989 87.455 66.7644 84.5682 66.7644C83.0602 66.7644 81.3493 66.829 80.7661 66.9082L79.7059 67.0521L79.5071 66.3152C79.2141 65.2286 79.2518 63.4446 79.5894 62.4302C80.0435 61.0655 81.3016 59.8045 83.0539 58.9579C84.744 58.1413 85.3099 58.1017 86.6364 58.708C88.4726 59.547 91.0803 61.753 92.1343 63.3588C92.5237 63.952 92.7058 63.6802 92.7396 62.4552L92.7684 61.416L93.3992 62.3796C94.0581 63.3858 94.5125 63.8533 95.3485 64.3843L95.8466 64.7009L95.7315 63.3377L95.6163 61.9747L96.1724 63.0866C96.7033 64.1482 98.4666 66.1657 98.8635 66.1657C98.9812 66.1657 99.052 65.6209 99.058 64.6689L99.0673 63.1721L99.4114 64.019C99.8728 65.1551 100.815 66.4069 101.55 66.8604C101.881 67.0643 102.179 67.203 102.213 67.1688C102.248 67.1346 102.34 66.3781 102.419 65.4879L102.562 63.8694L103.333 65.0569C103.757 65.71 104.605 66.7463 105.218 67.3597L106.332 68.475L106.381 66.9604L106.431 65.446L107.067 65.5647C108.908 65.9089 110.729 67.3395 111.328 68.9129L111.667 69.8045L112.317 67.2581C113.252 63.5914 114.386 60.2407 115.322 58.3777L116.136 56.7574H115.67C115.169 56.7574 114.193 57.3409 113.341 58.1508L112.811 58.6551L112.502 57.8345C111.656 55.5851 109.986 52.947 108.646 51.745C107.846 51.027 106.534 50.2379 105.738 49.9968C105.377 49.8873 105.432 49.9983 106.122 50.7638C107.126 51.8781 107.686 53.538 107.352 54.4068C107.287 54.5769 106.886 54.2811 106.024 53.4263C103.743 51.1644 99.2566 48.5667 93.4792 46.1618C88.4426 44.0653 87.7527 43.6084 86.9128 41.8129C86.3024 40.5079 85.9585 37.9365 86.3612 37.6881C86.452 37.6322 87.0331 37.5776 87.6528 37.5672L88.7795 37.548L86.7846 36.8821C82.8885 35.5817 79.9844 33.9635 77.3709 31.6371C71.5117 26.4213 61.912 21.8514 54.3102 20.6591C52.3579 20.3529 52.2084 20.5059 53.827 21.1538C54.6177 21.4705 58.0738 23.0872 58.0738 23.0872C58.0738 23.0872 59.121 23.5207 59.5494 23.6918C59.9779 23.8629 60.3206 24.0339 60.9204 24.4616C61.5201 24.8892 61.8212 25.0899 62.5959 25.5867C63.494 26.1625 65.0288 27.4784 66.8319 29.2188L69.6594 31.9481L68.4599 31.4191C67.8001 31.1283 66.9976 30.7739 66.6766 30.6316C65.2848 30.0146 61.7477 28.793 59.3199 28.091C56.3306 27.2266 53.7058 26.6695 49.7658 26.0629C42.0028 24.8681 36.133 21.6419 32.188 16.4018L31.7315 15.7954L32.9591 14.9721C39.8588 10.3447 48.7948 6.91088 57.0641 5.70918C61.9139 5.00458 69.1422 4.91974 73.5151 5.51623C85.4156 7.13941 95.8953 11.778 105.175 19.53C106.06 20.2689 106.417 20.6817 106.417 20.9636C106.417 21.4792 107.215 23.0468 107.541 23.1717C107.68 23.225 107.775 23.3561 107.751 23.463C107.676 23.7981 108.161 24.7692 108.403 24.7692C108.532 24.7692 108.593 24.8764 108.542 25.0104C108.433 25.2928 108.92 26.3087 109.164 26.3087C109.255 26.3087 109.33 26.5046 109.33 26.7441C109.33 26.9836 109.525 27.3736 109.762 27.6105C110 27.8476 110.161 28.0949 110.12 28.1603C110.005 28.3457 110.492 29.3878 110.693 29.3878C110.792 29.3878 110.875 29.5609 110.878 29.7727C110.881 29.9845 110.997 30.3071 111.135 30.4896C111.274 30.6723 111.387 31.1273 111.387 31.5009C111.387 32.0923 111.76 32.7469 114.27 36.5573C115.856 38.9646 117.483 41.454 117.885 42.089C118.642 43.2864 118.918 43.4363 119.55 42.9942C119.878 42.7654 119.922 42.7792 120.099 43.1653C120.221 43.4328 120.433 43.5858 120.681 43.5858C121.13 43.5858 124.891 41.1348 125.042 40.744C125.097 40.6008 125.04 40.2942 124.916 40.0628C124.713 39.6846 124.73 39.6146 125.081 39.3693C125.337 39.19 125.446 38.9716 125.4 38.7325C125.361 38.5323 124.023 36.3847 122.428 33.9601C120.832 31.5355 119.295 29.1712 119.013 28.7063C118.483 27.8351 117.978 27.35 117.592 27.3406C117.381 27.3353 116.02 26.0205 116.008 25.8104C115.994 25.5646 115.333 24.9402 115.087 24.9402C114.915 24.9402 114.814 24.7918 114.814 24.5391C114.814 24.1253 114.341 23.5718 113.987 23.5718C113.876 23.5718 113.786 23.4247 113.786 23.2449C113.786 23.0651 113.574 22.7339 113.315 22.509C113.055 22.284 112.717 21.873 112.561 21.5957C112.406 21.3184 112.117 21.0154 111.919 20.9226C111.721 20.8297 111.558 20.6494 111.558 20.5218C111.558 20.2024 110.332 18.6475 110.016 18.5657C109.875 18.5291 109.556 18.6126 109.308 18.7513C108.879 18.9906 108.832 18.9766 108.365 18.4747C108.095 18.1841 107.141 17.2792 106.246 16.4637C95.667 6.83014 82.3725 1.15249 68.0315 0.143748C65.7274 -0.0184167 62.1397 -0.0483521 60.32 0.0794296ZM29.3029 18.1555C29.3029 18.615 30.5537 20.9282 31.4318 22.0928C32.5707 23.6034 34.9845 25.948 36.5379 27.0523C38.8286 28.6806 42.1901 30.1352 45.3127 30.8487C45.9653 30.9976 48.2016 31.3415 50.2823 31.6126C54.2369 32.1278 56.552 32.6805 57.9608 33.4459C58.411 33.6905 58.7597 33.9094 58.7357 33.9323C58.7117 33.9551 57.4582 33.7957 55.9502 33.5777C51.7721 32.9742 48.6038 32.8039 42.4123 32.8494C36.2584 32.8947 34.8664 32.7678 31.2887 31.8364C28.5563 31.1249 27.0681 30.4538 25.5711 29.2585L24.8383 28.6731L25.271 29.6499C27.1951 33.9931 31.9952 37.1129 38.3853 38.1734C40.552 38.533 44.2435 38.7932 47.2962 38.8014C49.6844 38.8077 52.0779 39.0915 52.7068 39.4429C53.3254 39.7884 48.0893 40.7277 42.9264 41.1971C40.17 41.4479 38.5527 41.8476 36.6716 42.7433C33.4453 44.2794 30.7492 47.0232 28.9595 50.5915C28.2922 51.9219 27.2085 54.6845 27.2806 54.8713C27.3089 54.9448 28.1793 54.276 29.2145 53.3849C33.2726 49.8922 37.5056 47.6433 40.4416 47.4204C41.3853 47.3489 41.5068 47.3696 41.2375 47.5564C36.9439 50.531 34.1162 53.6296 32.0689 57.6029C29.1622 63.2441 28.4644 69.3262 29.9131 76.3932C30.4031 78.7829 31.678 82.7629 32.637 84.8967L33.252 86.2652L33.1197 84.8112C32.8995 82.394 32.966 75.4688 33.223 74.0344C33.4679 72.6689 34.3009 69.9386 34.6767 69.2702C34.8723 68.9225 34.9175 69.3269 35.0119 72.2638C35.2959 81.092 36.873 87.7685 39.7817 92.4569C40.7153 93.9617 42.8635 96.2868 43.8201 96.8276L44.3488 97.1267L43.6741 95.117C42.8063 92.5327 42.0369 89.4936 41.7212 87.4036C41.4479 85.593 41.3874 83.1716 41.6124 83.0329C41.6907 82.9845 41.8919 83.384 42.0593 83.9208C42.4835 85.2797 43.6484 87.5812 44.6786 89.0949C47.4092 93.1074 51.2246 96.2849 56.2929 98.7671C59.1412 100.162 60.6418 100.694 67.3928 102.699C81.425 106.867 83.672 107.728 87.8241 110.534C89.3131 111.541 93.9076 115.852 93.9076 116.243C93.9076 116.343 93.1557 116.787 92.2368 117.229C75.6252 125.22 56.4161 125.275 40.1025 117.377C33.6292 114.243 28.6567 110.721 23.7289 105.781C20.6801 102.725 18.7687 100.391 16.3616 96.7854C13.412 92.3669 11.2905 88.0222 9.56726 82.8707C7.46598 76.5892 6.50771 70.6728 6.5149 64.0274C6.52981 50.5255 11.0242 37.8792 19.6466 27.0785C22.1314 23.9659 28.7213 17.5881 29.1679 17.8637C29.2421 17.9095 29.3029 18.0409 29.3029 18.1555ZM77.6161 44.6087C78.3509 44.8191 79.122 45.5436 79.2552 46.1484C79.3234 46.4586 79.5938 46.7442 80.0776 47.0174L80.7982 47.4245L80.1127 47.5568C78.8321 47.8038 75.5496 47.7473 74.3276 47.4572C73.2332 47.1974 71.5791 46.4852 71.402 46.1977C71.3575 46.1253 71.5256 46.0576 71.7754 46.0472C72.0255 46.0365 72.6335 45.7757 73.1268 45.4673C74.5139 44.6002 76.3557 44.2479 77.6161 44.6087Z" fill="white"/>
</svg>
