<svg width="375" height="100" viewBox="0 0 375 100" fill="none" xmlns="http://www.w3.org/2000/svg">
<path fill-rule="evenodd" clip-rule="evenodd" d="M46.9901 0.0620544C39.6668 0.577372 33.4754 2.27888 27.0992 5.52822C15.6222 11.377 6.87059 21.5625 2.61634 34.0227C-1.25478 45.3599 -0.811571 58.3455 3.82248 69.3643C6.49667 75.7228 9.81097 80.6517 14.675 85.5038C18.8336 89.6523 22.7343 92.4276 28.1005 95.0559C39.6064 100.692 53.0266 101.549 65.1456 97.4236C67.412 96.6521 68.723 96.1088 70.9377 95.0237C74.9666 93.0497 78.1037 90.9785 81.4835 88.0613L82.9366 86.8071L83.4786 87.0825C83.7859 87.2388 84.0984 87.3145 84.2006 87.2573C84.3991 87.146 85.3035 85.9159 85.3035 85.757C85.3035 85.7021 85.4837 85.4768 85.704 85.2563C85.9243 85.0358 86.1045 84.7626 86.1045 84.6493C86.1045 84.536 86.2119 84.3856 86.3434 84.3153C86.4748 84.2449 86.67 84.0173 86.7773 83.8094C86.8845 83.6016 87.1373 83.2616 87.3393 83.0538C87.5413 82.8459 87.7064 82.5866 87.7064 82.4772C87.7064 82.3678 87.8867 82.1266 88.1069 81.9411C88.3272 81.7554 88.5074 81.4887 88.5074 81.3482C88.5074 81.2078 88.5846 81.0929 88.6788 81.0929C88.7732 81.0929 88.96 80.907 89.094 80.6799C89.228 80.4527 89.4975 80.2111 89.693 80.1429C89.8883 80.0748 90.1319 79.8847 90.2343 79.7206C90.5709 79.1813 92.2453 76.2543 92.2453 76.2053C92.2453 76.179 92.5645 75.6292 92.9547 74.9835C94.4098 72.5755 95.2089 71.065 95.1328 70.8665C95.0901 70.755 94.8474 70.541 94.5938 70.3911L94.1323 70.1186L95.3053 68.0884C95.9503 66.9719 96.562 65.8995 96.6646 65.7053C96.7671 65.5113 97.098 64.94 97.4001 64.4358C98.6981 62.2693 98.836 61.9579 98.6799 61.5442C98.5439 61.1835 98.5617 61.1493 98.9719 60.9775C99.7003 60.673 99.7655 60.5085 99.6892 59.1687C99.5813 57.2736 99.1389 57.0454 97.3181 57.9458L96.3169 58.4408L96.2769 59.1333C96.2392 59.7839 96.2124 59.831 95.8306 59.915C95.5372 59.9795 95.3728 60.1279 95.2385 60.4495C95.1364 60.6945 94.9975 60.929 94.93 60.9709C94.8122 61.0437 94.3743 61.7833 93.5868 63.2393C92.7849 64.7219 90.9903 67.8066 90.8228 67.9903C90.6841 68.1424 90.61 68.1498 90.4841 68.0237C90.3954 67.935 90.1905 67.8624 90.0287 67.8624C89.7529 67.8624 88.8177 69.3527 86.6721 73.2109C86.5282 73.4696 86.0104 74.3483 85.5214 75.1634C84.7345 76.4753 84.6352 76.7172 84.6561 77.2703C84.669 77.6141 84.6097 77.9653 84.5244 78.0507C84.439 78.1362 84.369 78.313 84.369 78.4436C84.369 78.5741 84.2492 78.8778 84.1026 79.1184C83.956 79.3591 83.8359 79.6538 83.8356 79.7735C83.8353 79.8932 83.7444 80.0664 83.6336 80.1583C83.5228 80.2504 83.395 80.5584 83.3495 80.8429C83.3041 81.1273 83.2242 81.3601 83.172 81.3601C83.0378 81.3601 82.7671 81.99 82.7671 82.3019C82.7671 82.4454 82.7143 82.5629 82.6497 82.5629C82.513 82.5629 82.1513 83.3742 82.2084 83.5529C82.2298 83.6197 82.1919 83.7099 82.1242 83.7534C81.9549 83.8622 81.2986 85.1832 81.2986 85.415C81.2986 85.7306 78.4047 87.865 75.8939 89.4011L74.4236 90.3008L74.338 87.9354C74.2152 84.5369 73.7039 82.2443 72.4983 79.6856C71.2373 77.0095 69.0836 74.3705 66.7476 72.639C66.1969 72.2309 63.3746 70.4708 60.4758 68.7278C53.2734 64.397 52.4715 63.838 51.5186 62.4834C51.2213 62.0607 50.9036 61.715 50.8125 61.715C50.5556 61.715 48.5143 60.6966 47.8166 60.2203C45.3711 58.5506 43.6772 56.1209 42.9851 53.2897C41.9886 49.2134 42.9849 45.417 45.5766 43.4154C45.9638 43.1164 46.3131 42.8717 46.3528 42.8717C46.3926 42.8717 46.2766 43.2396 46.0952 43.6894C45.9138 44.1391 45.6106 45.0863 45.4214 45.7942C45.1215 46.9172 45.0762 47.3625 45.0661 49.2864C45.0559 51.2007 45.0942 51.6287 45.3558 52.5319C46.1148 55.1535 47.6453 57.2694 49.9775 58.9211C50.8619 59.5473 51.1285 59.6244 51.1285 59.2536C51.1285 58.9105 52.218 57.8486 52.9022 57.5248C54.4739 56.781 56.8168 56.5928 59.7656 56.9738C62.9971 57.3913 64.7495 57.7418 73.0886 59.639C74.5571 59.9731 76.1545 60.2838 76.6385 60.3297L77.5186 60.413L77.0214 61.3749C76.434 62.5113 76.2689 63.4536 76.4933 64.3899C76.581 64.7562 76.6993 65.056 76.756 65.056C76.8128 65.056 76.8957 64.8275 76.9402 64.5482C77.0603 63.7966 77.7747 62.4575 78.3038 61.9924C78.5589 61.7683 79.2306 61.3586 79.7967 61.0819C80.4958 60.7403 81.0942 60.3122 81.6621 59.7471C82.493 58.9206 82.4996 58.9172 82.6926 59.2126C83.1132 59.8564 83.3215 60.5844 83.3263 61.4285C83.3314 62.3022 83.332 62.3037 83.5384 61.9097C83.8193 61.3737 83.9061 59.7664 83.7014 58.889C83.4864 57.9668 82.7643 56.5123 82.029 55.5206L81.4493 54.7387L81.3659 55.2533C81.3201 55.5364 81.2403 55.9726 81.1886 56.2226L81.0945 56.6771L80.5807 55.8437C80.0781 55.0285 78.5677 53.2956 78.3597 53.2956C78.302 53.2956 78.1808 53.6114 78.0905 53.9972C77.9999 54.3831 77.8982 54.7475 77.8642 54.8068C77.8301 54.8663 77.2395 54.3251 76.5518 53.6041C75.1716 52.1573 75.1793 52.1583 74.8881 53.3735C74.7927 53.7716 74.6756 54.0975 74.628 54.0975C74.5803 54.0975 74.2511 53.761 73.8964 53.3497C73.5417 52.9385 72.9169 52.339 72.5078 52.0176C71.6828 51.3693 71.5602 51.4047 71.5534 52.2933C71.5467 53.1613 71.4211 53.2518 70.6645 52.9333C69.2616 52.3429 68.1287 52.1597 65.8798 52.1597C64.7051 52.1597 63.3722 52.2102 62.918 52.2721L62.092 52.3845L61.9372 51.8087C61.7089 50.9599 61.7383 49.5661 62.0012 48.7736C62.355 47.7074 63.3351 46.7222 64.7001 46.0609C66.0168 45.4229 66.4576 45.392 67.491 45.8656C68.9214 46.5211 70.9528 48.2445 71.7739 49.499C72.0773 49.9625 72.2192 49.7501 72.2455 48.7931L72.2679 47.9813L72.7593 48.7341C73.2726 49.5201 73.6266 49.8854 74.2778 50.3002L74.6659 50.5476L74.5762 49.4826L74.4865 48.4177L74.9197 49.2864C75.3332 50.1158 76.7069 51.6919 77.0161 51.6919C77.1078 51.6919 77.1629 51.2663 77.1676 50.5226L77.1748 49.3532L77.4429 50.0149C77.8024 50.9024 78.5365 51.8804 79.1092 52.2346C79.3665 52.3939 79.5991 52.5023 79.6257 52.4756C79.6524 52.4489 79.7243 51.8579 79.7856 51.1624L79.8969 49.8979L80.4976 50.8257C80.8281 51.3359 81.4889 52.1455 81.9661 52.6247L82.8338 53.4961L82.8725 52.3128L82.9114 51.1297L83.4065 51.2225C84.8411 51.4913 86.2593 52.609 86.7259 53.8382L86.9902 54.5347L87.4963 52.5454C88.2249 49.6808 89.1084 47.063 89.8376 45.6075L90.4717 44.3417H90.109C89.7181 44.3417 88.9584 44.7976 88.2943 45.4303L87.881 45.8243L87.6406 45.1832C86.9818 43.4259 85.6806 41.3649 84.6371 40.4258C84.0138 39.8649 82.9912 39.2484 82.3714 39.06C82.09 38.9744 82.1334 39.0612 82.6704 39.6592C83.4523 40.5297 83.8888 41.8266 83.6287 42.5054C83.5778 42.6382 83.2658 42.4071 82.5941 41.7393C80.817 39.9722 77.3223 37.9427 72.8216 36.0639C68.898 34.426 68.3606 34.069 67.7063 32.6663C67.2308 31.6468 66.9629 29.6379 67.2766 29.4439C67.3474 29.4002 67.8 29.3575 68.2828 29.3494L69.1605 29.3344L67.6065 28.8141C64.5713 27.7982 62.309 26.534 60.273 24.7165C55.7086 20.6416 48.2303 17.0714 42.3084 16.1399C40.7875 15.9007 40.6711 16.0202 41.932 16.5264C42.5479 16.7738 45.2403 18.0368 45.2403 18.0368C45.2403 18.0368 46.0561 18.3756 46.3899 18.5092C46.7236 18.6429 46.9906 18.7765 47.4578 19.1106C47.9251 19.4447 48.1596 19.6015 48.7631 19.9896C49.4628 20.4394 50.6584 21.4675 52.063 22.8272L54.2657 24.9594L53.3312 24.5462C52.8173 24.319 52.1921 24.0421 51.9421 23.9309C50.8578 23.4489 48.1023 22.4946 46.2111 21.9461C43.8824 21.2708 41.8376 20.8355 38.7683 20.3617C32.7208 19.4282 28.1481 16.9077 25.0749 12.8139L24.7193 12.3401L25.6756 11.6969C31.0506 8.08182 38.0119 5.39912 44.4537 4.4603C48.2318 3.90983 53.8628 3.84355 57.2693 4.30955C66.54 5.57767 74.7038 9.2016 81.9327 15.2578C82.622 15.8351 82.9006 16.1576 82.9006 16.3778C82.9006 16.7806 83.5221 18.0053 83.776 18.1029C83.8846 18.1446 83.9581 18.2469 83.9396 18.3304C83.8815 18.5922 84.2593 19.3509 84.4478 19.3509C84.5477 19.3509 84.5956 19.4347 84.5554 19.5394C84.4709 19.76 84.85 20.5537 85.04 20.5537C85.1115 20.5537 85.17 20.7067 85.17 20.8938C85.17 21.0809 85.3214 21.3856 85.5063 21.5707C85.6913 21.7559 85.8168 21.9492 85.7852 22.0002C85.6958 22.1451 86.0747 22.9592 86.2316 22.9592C86.3085 22.9592 86.3733 23.0945 86.3757 23.2599C86.378 23.4254 86.4681 23.6774 86.576 23.82C86.6837 23.9627 86.772 24.3182 86.772 24.6101C86.772 25.0721 87.0627 25.5835 89.0183 28.5604C90.2538 30.4411 91.5208 32.386 91.8337 32.882C92.4238 33.8175 92.6387 33.9346 93.1312 33.5893C93.3863 33.4104 93.4213 33.4213 93.5585 33.7229C93.6537 33.9319 93.8187 34.0514 94.0121 34.0514C94.3623 34.0514 97.2921 32.1366 97.4092 31.8312C97.452 31.7194 97.408 31.4799 97.3113 31.2991C97.1534 31.0036 97.1662 30.9489 97.4396 30.7573C97.6392 30.6172 97.7245 30.4466 97.6883 30.2597C97.6579 30.1034 96.616 28.4255 95.373 26.5313C94.13 24.6371 92.9328 22.79 92.7125 22.4268C92.2999 21.7462 91.9069 21.3672 91.6059 21.3598C91.4417 21.3557 90.3812 20.3285 90.3719 20.1644C90.361 19.9724 89.8461 19.4846 89.6541 19.4846C89.5205 19.4846 89.4419 19.3686 89.4419 19.1712C89.4419 18.8479 89.073 18.4154 88.7972 18.4154C88.7113 18.4154 88.6409 18.3005 88.6409 18.1601C88.6409 18.0196 88.4758 17.7609 88.2738 17.5851C88.0718 17.4094 87.8078 17.0883 87.6868 16.8716C87.566 16.655 87.3407 16.4183 87.1862 16.3458C87.0319 16.2732 86.9055 16.1323 86.9055 16.0326C86.9055 15.7831 85.9504 14.5683 85.704 14.5045C85.5939 14.4759 85.3456 14.5411 85.1523 14.6495C84.8185 14.8364 84.7814 14.8255 84.418 14.4334C84.2075 14.2063 83.4646 13.4993 82.7671 12.8623C74.526 5.33605 64.1694 0.900381 52.9975 0.112303C51.2026 -0.0143881 48.4077 -0.0377751 46.9901 0.0620544ZM255.377 27.7607C255.377 41.1954 255.331 47.9982 255.234 48.6938C254.338 55.1477 249.416 60.4959 242.852 62.1504C241.324 62.5354 237.457 62.5774 235.887 62.2259C231.793 61.3092 228.024 58.7163 225.723 55.2334C221.792 49.2829 222.295 41.5574 226.977 35.9717C229.322 33.1742 232.903 31.1435 236.605 30.5118C237.569 30.3474 239.215 30.3094 245.383 30.3094H252.974L252.972 29.9419C252.971 29.7399 252.851 26.327 252.707 22.3578C252.562 18.3887 252.443 14.9714 252.442 14.7638L252.441 14.3863L250.405 14.4685C238.499 14.9489 230.555 15.7368 227.343 16.7555C225.938 17.2013 223.434 18.5048 221.469 19.8132C216.696 22.9921 213.087 27.132 210.512 32.3809C208.921 35.623 207.925 38.8892 207.435 42.4707C207.172 44.3865 207.212 49.1234 207.507 51.0906C209.314 63.1348 217.543 72.969 229.013 76.7922C235.712 79.0252 243.675 78.9064 250.27 76.475C253.22 75.3876 257.147 73.1757 259.382 71.3428C264.662 67.0141 268.632 60.8487 270.252 54.4659C271.239 50.5735 271.18 52.1241 271.229 28.806L271.272 7.85784H263.325H255.377V27.7607ZM22.8274 14.184C22.8274 14.5429 23.8018 16.3502 24.4858 17.26C25.373 18.4402 27.2534 20.2718 28.4636 21.1346C30.248 22.4067 32.8667 23.5431 35.2992 24.1005C35.8076 24.2169 37.5497 24.4855 39.1706 24.6974C42.2513 25.0999 44.0548 25.5317 45.1523 26.1296C45.503 26.3207 45.7747 26.4917 45.756 26.5096C45.7373 26.5274 44.7608 26.4029 43.586 26.2326C40.3312 25.7611 37.863 25.628 33.0398 25.6636C28.2458 25.699 27.1615 25.5998 24.3743 24.8722C22.2457 24.3163 21.0865 23.7921 19.9202 22.8582L19.3494 22.4009L19.6865 23.164C21.1854 26.5571 24.9247 28.9944 29.9027 29.823C31.5906 30.1039 34.4664 30.3072 36.8445 30.3136C38.7049 30.3185 40.5694 30.5402 41.0593 30.8147C41.5412 31.0847 37.4623 31.8185 33.4403 32.1852C31.293 32.3811 30.0331 32.6935 28.5677 33.3932C26.0544 34.5933 23.9541 36.7369 22.5598 39.5246C22.04 40.564 21.1958 42.7222 21.252 42.8682C21.274 42.9257 21.952 42.4031 22.7585 41.707C25.9198 38.9783 29.2174 37.2213 31.5046 37.0472C32.2398 36.9913 32.3344 37.0075 32.1246 37.1534C28.7798 39.4773 26.577 41.8981 24.9821 45.0023C22.7178 49.4095 22.1742 54.1611 23.3028 59.6822C23.6844 61.5491 24.6776 64.6585 25.4247 66.3256L25.9038 67.3947L25.8007 66.2588C25.6292 64.3703 25.681 58.96 25.8812 57.8394C26.072 56.7725 26.7209 54.6395 27.0137 54.1174C27.166 53.8457 27.2012 54.1616 27.2748 56.4561C27.496 63.3531 28.7246 68.5691 30.9905 72.2319C31.7178 73.4076 33.3913 75.224 34.1365 75.6466L34.5483 75.8802L34.0227 74.3102C33.3467 72.2912 32.7473 69.9169 32.5014 68.2841C32.2885 66.8695 32.2414 64.9778 32.4167 64.8694C32.4777 64.8316 32.6344 65.1438 32.7648 65.5632C33.0952 66.6248 34.0027 68.4228 34.8053 69.6054C36.9324 72.7402 39.9047 75.2226 43.853 77.1618C46.0718 78.2518 47.2409 78.667 52.4999 80.2335C63.4313 83.4897 65.1817 84.1628 68.4163 86.3548C69.5762 87.141 73.1554 90.5094 73.1554 90.8151C73.1554 90.8931 72.5696 91.2396 71.8538 91.585C58.9131 97.8284 43.949 97.871 31.2404 91.7006C26.1976 89.252 22.324 86.501 18.4851 82.6417C16.1101 80.2541 14.6211 78.4306 12.7459 75.6136C10.4482 72.1617 8.79547 68.7673 7.45303 64.7427C5.81611 59.8353 5.0696 55.2131 5.0752 50.0214C5.08682 39.473 8.58802 29.5931 15.305 21.1551C17.2407 18.7234 22.3743 13.7407 22.7222 13.956C22.78 13.9918 22.8274 14.0944 22.8274 14.184ZM119.612 14.4136C116.638 14.4629 113.86 14.5115 113.438 14.5216L112.67 14.5399V46.48V78.42H120.613H128.556V66.3924V54.3647H142.44H156.323V66.3924V78.42H164.2H172.076V57.4663V36.5125L164.233 25.426L156.39 14.3394L156.356 26.4005L156.322 38.4615H142.439H128.556V26.3671V14.2726L126.787 14.2982C125.815 14.3123 122.586 14.3641 119.612 14.4136ZM163.182 15.1747C163.5 15.6709 167.915 22.6742 172.991 30.7376L182.222 45.3984V61.9093V78.42H190.098H197.974V61.8604V45.3007L207.428 29.8869L216.883 14.473L212.201 14.3746C209.626 14.3204 205.538 14.2904 203.117 14.3077L198.715 14.3394L194.501 21.1203C192.184 24.8497 190.228 27.9607 190.155 28.0336C190.068 28.1211 188.556 25.8092 185.7 21.2194L181.377 14.2726H171.99H162.603L163.182 15.1747ZM303.503 14.4205C295.821 15.1358 288.591 18.6128 283.21 24.1786C279.222 28.3044 276.284 33.539 274.933 38.9293C273.972 42.7613 274.018 41.6929 273.968 61.0134L273.923 78.42H281.804H289.686V61.9329C289.686 47.8234 289.715 45.2747 289.888 44.259C291.08 37.258 296.837 31.4976 303.767 30.3724C305.172 30.1443 308.478 30.113 309.226 30.3208L309.742 30.4645L315.767 24.3547C319.081 20.9943 321.809 18.201 321.83 18.1474C321.886 18.0058 318.823 16.6531 317.186 16.0966C312.718 14.5778 308.009 14.001 303.503 14.4205ZM340.615 14.3509C335.833 14.8276 332.591 15.7082 328.867 17.5416C319.295 22.2541 312.85 31.118 311.225 41.8025C310.893 43.9815 310.897 48.7559 311.231 50.9569C312.611 60.0429 317.566 67.8956 325.062 72.8777C328.261 75.0035 330.463 76.0042 332.829 76.4065C336.433 77.0194 346.179 77.6124 352.72 77.6169L354.68 77.6182L354.619 71.6378C354.585 68.3486 354.523 64.9206 354.481 64.0203L354.405 62.3832H347.967C342.649 62.3832 341.311 62.3456 340.275 62.1673C332.575 60.8434 326.799 54.0619 326.799 46.3463C326.799 37.6396 334.128 30.3136 342.841 30.31C345.497 30.3089 347.591 30.8098 350.093 32.0444C350.974 32.4792 352.115 33.1527 352.629 33.541C355.68 35.8458 357.816 39.1621 358.801 43.122C358.999 43.917 359.026 45.7687 359.066 61.2138L359.112 78.42H367.056H375L374.954 60.8129C374.903 41.289 374.946 42.2962 373.998 38.5432C372.587 32.9609 369.609 27.7576 365.485 23.668C363.61 21.8088 362.549 20.9376 360.506 19.5807C356.687 17.0448 352.131 15.3052 347.49 14.6103C346.139 14.4082 341.715 14.2412 340.615 14.3509ZM60.464 34.8506C61.0365 35.0149 61.6372 35.5809 61.7409 36.0535C61.7941 36.2957 62.0047 36.5189 62.3816 36.7323L62.9429 37.0504L62.4089 37.1537C61.4113 37.3467 58.8542 37.3026 57.9023 37.0759C57.0497 36.8729 55.7611 36.3166 55.6232 36.0919C55.5885 36.0354 55.7195 35.9825 55.9141 35.9743C56.1089 35.9661 56.5825 35.7622 56.9668 35.5213C58.0474 34.8439 59.4822 34.5687 60.464 34.8506Z" fill="white"/>
</svg>
