<svg width="128" height="128" viewBox="0 0 128 128" fill="none" xmlns="http://www.w3.org/2000/svg">
<path d="M128 64C128 99.3462 99.3462 128 64 128C28.6538 128 0 99.3462 0 64C0 28.6538 28.6538 0 64 0C99.3462 0 128 28.6538 128 64Z" fill="#556B2F"/>
<path fill-rule="evenodd" clip-rule="evenodd" d="M60.7289 8.0706C52.3727 8.65692 45.308 10.5929 38.0325 14.2899C24.9367 20.9445 14.9508 32.5334 10.0965 46.7102C5.67936 59.6095 6.18507 74.3842 11.4727 86.9211C14.5241 94.1557 18.3059 99.7637 23.856 105.284C28.601 110.004 33.052 113.162 39.175 116.152C52.3037 122.565 67.6167 123.54 81.4451 118.846C84.0311 117.969 85.5271 117.351 88.0541 116.116C92.6513 113.87 96.2308 111.513 100.087 108.194L101.745 106.767L102.364 107.081C102.714 107.258 103.071 107.344 103.188 107.279C103.414 107.153 104.446 105.753 104.446 105.572C104.446 105.51 104.652 105.254 104.903 105.003C105.154 104.752 105.36 104.441 105.36 104.312C105.36 104.183 105.483 104.012 105.633 103.932C105.783 103.852 106.005 103.593 106.128 103.356C106.25 103.12 106.539 102.733 106.769 102.497C107 102.26 107.188 101.965 107.188 101.841C107.188 101.716 107.394 101.442 107.645 101.231C107.896 101.02 108.102 100.716 108.102 100.556C108.102 100.396 108.19 100.266 108.297 100.266C108.405 100.266 108.618 100.054 108.771 99.7958C108.924 99.5373 109.232 99.2624 109.455 99.1849C109.678 99.1073 109.956 98.8911 110.072 98.7044C110.456 98.0907 112.367 94.7604 112.367 94.7048C112.367 94.6748 112.731 94.0492 113.176 93.3145C114.837 90.5748 115.749 88.8562 115.662 88.6304C115.613 88.5034 115.336 88.26 115.047 88.0894L114.52 87.7793L115.859 85.4695C116.595 84.1991 117.293 82.979 117.41 82.7581C117.527 82.5373 117.904 81.8873 118.249 81.3136C119.73 78.8486 119.887 78.4944 119.709 78.0236C119.554 77.6132 119.574 77.5743 120.042 77.3789C120.873 77.0324 120.948 76.8452 120.861 75.3209C120.738 73.1646 120.233 72.905 118.155 73.9294L117.013 74.4926L116.967 75.2806C116.924 76.0208 116.894 76.0744 116.458 76.1699C116.123 76.2434 115.936 76.4121 115.782 76.7781C115.666 77.0569 115.507 77.3237 115.43 77.3713C115.296 77.4542 114.796 78.2956 113.898 79.9522C112.983 81.6391 110.935 85.1488 110.744 85.3579C110.586 85.5309 110.501 85.5393 110.357 85.3959C110.256 85.2949 110.022 85.2124 109.838 85.2124C109.523 85.2124 108.456 86.9079 106.008 91.2977C105.844 91.5921 105.253 92.5918 104.695 93.5192C103.797 95.0119 103.684 95.2871 103.707 95.9165C103.722 96.3075 103.654 96.7071 103.557 96.8043C103.46 96.9016 103.38 97.1028 103.38 97.2513C103.38 97.3999 103.243 97.7454 103.076 98.0192C102.909 98.2931 102.771 98.6283 102.771 98.7646C102.771 98.9007 102.667 99.0977 102.541 99.2023C102.414 99.3071 102.268 99.6576 102.217 99.9813C102.165 100.305 102.073 100.57 102.014 100.57C101.861 100.57 101.552 101.286 101.552 101.641C101.552 101.805 101.492 101.938 101.418 101.938C101.262 101.938 100.849 102.861 100.914 103.065C100.939 103.141 100.896 103.243 100.818 103.293C100.625 103.416 99.8764 104.92 99.8764 105.183C99.8764 105.542 96.5743 107.971 93.7093 109.719L92.0316 110.742L91.934 108.051C91.7938 104.184 91.2105 101.576 89.8348 98.6645C88.3959 95.6197 85.9385 92.6171 83.273 90.6471C82.6446 90.1827 79.4243 88.1801 76.1166 86.1969C67.8984 81.2695 66.9834 80.6334 65.8961 79.0922C65.5568 78.6113 65.1943 78.2179 65.0904 78.2179C64.7972 78.2179 62.468 77.0593 61.6719 76.5174C58.8815 74.6176 56.9487 71.8531 56.159 68.6319C55.0219 63.994 56.1587 59.6744 59.1159 57.3971C59.5578 57.0568 59.9563 56.7784 60.0017 56.7784C60.0471 56.7784 59.9147 57.197 59.7077 57.7088C59.5007 58.2205 59.1548 59.2982 58.9389 60.1037C58.5967 61.3814 58.545 61.888 58.5334 64.077C58.5219 66.255 58.5656 66.742 58.864 67.7696C59.7301 70.7524 61.4765 73.1599 64.1376 75.0391C65.1468 75.7516 65.451 75.8394 65.451 75.4174C65.451 75.0271 66.6941 73.8189 67.4748 73.4504C69.2682 72.6041 71.9415 72.39 75.3062 72.8235C78.9935 73.2985 80.9931 73.6974 90.5084 75.8559C92.184 76.2361 94.0067 76.5896 94.559 76.6417L95.5631 76.7366L94.9959 77.831C94.3256 79.124 94.1372 80.1961 94.3933 81.2614C94.4934 81.6782 94.6283 82.0193 94.693 82.0193C94.7578 82.0193 94.8524 81.7592 94.9033 81.4415C95.0402 80.5863 95.8554 79.0627 96.4591 78.5336C96.7502 78.2786 97.5167 77.8124 98.1626 77.4977C98.9603 77.109 99.6431 76.6218 100.291 75.979C101.239 75.0385 101.247 75.0347 101.467 75.3707C101.947 76.1033 102.185 76.9316 102.19 77.8919C102.196 78.8861 102.197 78.8877 102.432 78.4395C102.753 77.8296 102.852 76.0008 102.618 75.0026C102.373 73.9533 101.549 72.2985 100.71 71.1701L100.048 70.2804L99.9531 70.866C99.9009 71.188 99.8098 71.6843 99.7508 71.9688L99.6434 72.486L99.0571 71.5378C98.4836 70.6102 96.7602 68.6386 96.5229 68.6386C96.4571 68.6386 96.3188 68.9979 96.2157 69.4369C96.1124 69.8758 95.9963 70.2905 95.9575 70.358C95.9187 70.4257 95.2448 69.8098 94.46 68.9895C92.8851 67.3434 92.8939 67.3446 92.5617 68.7272C92.4528 69.1802 92.3192 69.5509 92.2648 69.5509C92.2105 69.5509 91.8348 69.168 91.4301 68.7002C91.0254 68.2323 90.3125 67.5502 89.8456 67.1845C88.9042 66.4469 88.7644 66.4872 88.7566 67.4982C88.749 68.4858 88.6057 68.5887 87.7423 68.2264C86.1415 67.5546 84.8489 67.3461 82.2829 67.3461C80.9424 67.3461 79.4216 67.4036 78.9032 67.474L77.9608 67.6019L77.7841 66.9468C77.5236 65.981 77.5571 64.3952 77.8572 63.4936C78.2609 62.2805 79.3792 61.1595 80.9368 60.407C82.4391 59.6811 82.9421 59.646 84.1213 60.1849C85.7534 60.9307 88.0713 62.8916 89.0083 64.3189C89.3544 64.8462 89.5163 64.6046 89.5463 63.5157L89.5719 62.592L90.1326 63.4485C90.7183 64.3429 91.1223 64.7585 91.8653 65.2305L92.3081 65.5119L92.1034 63.0886L92.5977 64.077C93.0696 65.0206 94.637 66.8139 94.9898 66.8139C95.0944 66.8139 95.1573 66.3296 95.1627 65.4835L95.1709 64.153L95.4768 64.9058C95.887 65.9156 96.7246 67.0283 97.3781 67.4314C97.6718 67.6127 97.9371 67.736 97.9674 67.7056C97.9979 67.6752 98.08 67.0028 98.1499 66.2115L98.2769 64.7728L98.9624 65.8283C99.3394 66.4089 100.093 67.33 100.638 67.8753L101.628 68.8667L101.717 66.1742L102.282 66.2798C103.918 66.5857 105.537 67.8573 106.069 69.2559L106.371 70.0484L106.948 67.7849C107.78 64.5257 108.788 61.5473 109.62 59.8913L110.343 58.451H109.929C109.483 58.451 108.616 58.9697 107.859 59.6896L107.387 60.1379L107.113 59.4085C106.361 57.409 104.876 55.064 103.686 53.9955C102.974 53.3574 101.808 52.656 101.1 52.4416C100.779 52.3442 100.829 52.4429 101.442 53.1234C102.334 54.1138 102.832 55.5894 102.535 56.3616C102.477 56.5128 102.121 56.2499 101.355 55.4901C99.3268 53.4795 95.3392 51.1704 90.2037 49.0327C85.7268 47.1691 85.1135 46.763 84.367 45.167C83.8244 44.007 83.5187 41.7214 83.8766 41.5006C83.9574 41.4509 84.4739 41.4023 85.0247 41.3931L86.0262 41.376L84.253 40.7841C80.7898 39.6282 78.2083 38.1898 75.8852 36.1218C70.6771 31.4856 62.144 27.4235 55.3869 26.3637C53.6514 26.0915 53.5186 26.2274 54.9573 26.8034C55.6601 27.0849 58.7322 28.5219 58.7322 28.5219C58.7322 28.5219 59.6631 28.9073 60.044 29.0594C60.4248 29.2114 60.7294 29.3635 61.2625 29.7436C61.7957 30.1237 62.0633 30.3022 62.7519 30.7437C63.5503 31.2555 64.9145 32.4253 66.5172 33.9723L69.0306 36.3983L67.9643 35.9281C67.3779 35.6696 66.6645 35.3546 66.3792 35.2281C65.1421 34.6796 61.9979 33.5938 59.8399 32.9698C57.1828 32.2015 54.8496 31.7062 51.3474 31.167C44.4469 30.1049 39.2293 27.2372 35.7227 22.5794L35.3169 22.0403L36.4081 21.3085C42.5412 17.1953 50.4843 14.143 57.8347 13.0748C62.1457 12.4485 68.5709 12.3731 72.4579 12.9033C83.0361 14.3461 92.3514 18.4694 100.6 25.36C101.386 26.0168 101.704 26.3837 101.704 26.6343C101.704 27.0926 102.413 28.486 102.703 28.597C102.827 28.6445 102.911 28.7609 102.89 28.856C102.824 29.1538 103.255 30.0171 103.47 30.0171C103.584 30.0171 103.638 30.1124 103.592 30.2314C103.496 30.4825 103.929 31.3855 104.145 31.3855C104.227 31.3855 104.294 31.5596 104.294 31.7725C104.294 31.9854 104.467 32.3321 104.677 32.5427C104.889 32.7534 105.032 32.9733 104.996 33.0314C104.894 33.1962 105.326 34.1225 105.505 34.1225C105.593 34.1225 105.667 34.2764 105.67 34.4646C105.672 34.6529 105.775 34.9396 105.898 35.1019C106.021 35.2643 106.122 35.6687 106.122 36.0008C106.122 36.5265 106.453 37.1084 108.685 40.4953C110.095 42.6352 111.54 44.848 111.897 45.4124C112.571 46.4768 112.816 46.61 113.378 46.2171C113.669 46.0137 113.709 46.026 113.865 46.3692C113.974 46.607 114.162 46.7429 114.383 46.7429C114.783 46.7429 118.126 44.5643 118.259 44.2168C118.308 44.0896 118.258 43.8171 118.148 43.6114C117.967 43.2752 117.982 43.213 118.294 42.995C118.522 42.8356 118.619 42.6414 118.578 42.4289C118.543 42.251 117.354 40.3419 115.936 38.1867C114.517 36.0315 113.151 33.93 112.9 33.5167C112.429 32.7423 111.981 32.3111 111.637 32.3027C111.45 32.298 110.24 31.1293 110.229 30.9426C110.217 30.7241 109.629 30.1691 109.41 30.1691C109.258 30.1691 109.168 30.0371 109.168 29.8125C109.168 29.4447 108.747 28.9527 108.433 28.9527C108.334 28.9527 108.254 28.8219 108.254 28.6621C108.254 28.5023 108.066 28.2079 107.835 28.008C107.605 27.808 107.304 27.4426 107.166 27.1962C107.028 26.9497 106.771 26.6804 106.594 26.5978C106.418 26.5153 106.274 26.355 106.274 26.2416C106.274 25.9577 105.184 24.5755 104.903 24.5028C104.777 24.4703 104.494 24.5445 104.274 24.6678C103.893 24.8805 103.85 24.8681 103.436 24.422C103.196 24.1636 102.348 23.3593 101.552 22.6344C92.1485 14.0712 80.3311 9.02443 67.5835 8.12778C65.5355 7.98363 62.3464 7.95702 60.7289 8.0706ZM33.1581 24.1382C33.1581 24.5466 34.2699 26.6029 35.0505 27.638C36.0628 28.9808 38.2085 31.0649 39.5893 32.0465C41.6254 33.4939 44.6134 34.7868 47.3891 35.421C47.9691 35.5535 49.957 35.8591 51.8065 36.1001C55.3217 36.5581 57.3796 37.0494 58.6318 37.7296C59.032 37.9471 59.342 38.1417 59.3207 38.1621C59.2993 38.1823 58.1851 38.0406 56.8446 37.8469C53.1308 37.3104 50.3145 37.159 44.811 37.1994C39.3408 37.2397 38.1035 37.1269 34.9233 36.299C32.4945 35.6666 31.1717 35.0701 29.841 34.0075L29.1896 33.4872L29.5742 34.3554C31.2845 38.2161 35.5513 40.9892 41.2313 41.9319C43.1573 42.2516 46.4387 42.4828 49.1522 42.4901C51.275 42.4958 53.4025 42.748 53.9616 43.0603C54.5115 43.3675 49.8572 44.2024 45.2679 44.6196C42.8178 44.8425 41.3802 45.1979 39.7081 45.994C36.8403 47.3595 34.4437 49.7984 32.8529 52.9702C32.2597 54.1528 31.2964 56.6084 31.3605 56.7745C31.3857 56.8399 32.1593 56.2453 33.0795 55.4533C36.6867 52.3487 40.4495 50.3496 43.0592 50.1515C43.8981 50.0879 44.0061 50.1063 43.7666 50.2724C39.9501 52.9164 37.4366 55.6707 35.6168 59.2026C33.0331 64.217 32.4128 69.6233 33.7006 75.905C34.1361 78.0292 35.2693 81.5671 36.1218 83.4638L36.6685 84.6802L36.5509 83.3877C36.3551 81.2391 36.4142 75.0834 36.6427 73.8084C36.8604 72.5945 37.6008 70.1676 37.9349 69.5735C38.1087 69.2644 38.1489 69.6239 38.2328 72.2345C38.4852 80.0818 39.8871 86.0164 42.4726 90.1839C43.3025 91.5215 45.212 93.5882 46.0623 94.069L46.5322 94.3348L45.9325 92.5485C45.1612 90.2513 44.4772 87.5499 44.1966 85.6921C43.9537 84.0826 43.8999 81.9303 44.0999 81.807C44.1695 81.764 44.3484 82.1192 44.4972 82.5963C44.8742 83.8042 45.9097 85.8499 46.8255 87.1955C49.2526 90.7622 52.6441 93.5866 57.1493 95.793C59.6811 97.0331 61.015 97.5056 67.0158 99.2879C79.4889 102.993 81.4862 103.759 85.177 106.253C86.5006 107.147 90.5845 110.98 90.5845 111.327C90.5845 111.416 89.9161 111.81 89.0994 112.203C74.3335 119.307 57.2588 119.355 42.7578 112.335C37.0037 109.549 32.5837 106.419 28.2035 102.028C25.4935 99.3114 23.7944 97.2366 21.6547 94.0315C19.0329 90.1039 17.1471 86.2419 15.6153 81.6628C13.7475 76.0793 12.8957 70.8202 12.9021 64.9133C12.9154 52.9116 16.9104 41.6704 24.5748 32.0698C26.7835 29.303 32.6411 23.6339 33.0381 23.8788C33.1041 23.9196 33.1581 24.0363 33.1581 24.1382ZM76.1032 47.6522C76.7564 47.8392 77.4418 48.4832 77.5602 49.0208C77.6208 49.2965 77.8612 49.5504 78.2912 49.7933L78.9317 50.1551L78.3224 50.2727C77.1841 50.4922 74.2663 50.4421 73.1801 50.1842C72.2073 49.9532 70.7369 49.3202 70.5796 49.0646C70.54 49.0003 70.6894 48.9401 70.9115 48.9308C71.1337 48.9214 71.6742 48.6895 72.1127 48.4153C73.3457 47.6446 74.9828 47.3315 76.1032 47.6522Z" fill="white"/>
</svg>
